<svg width="99" height="44" viewBox="0 0 99 44" fill="none" xmlns="http://www.w3.org/2000/svg">
<g clip-path="url(#clip0_679_14235)">
<path d="M47.1105 19.0847L44.8876 21.3076L47.074 23.4941L49.2896 21.2712L47.1032 19.0847H47.1105ZM60.3093 19.1139L58.0864 21.3441L60.3093 23.5597L62.5249 21.3441L60.3093 19.1212V19.1139ZM78.0486 19.1212L75.8403 21.3295L78.0632 23.5451L80.2642 21.3441L78.0486 19.1212ZM64.7405 32.422L61.8398 35.33L64.0627 37.5456L66.9633 34.6449L64.7405 32.4293V32.422ZM69.1789 27.9908L66.9633 30.2064L69.1789 32.4293L71.4018 30.2064L69.1789 27.9908ZM81.2991 15.878L80.2642 16.8983L82.4871 19.1212L83.5147 18.0936L81.2991 15.8707V15.878ZM73.6247 23.5524L71.4018 25.768L73.6247 27.9908L75.8403 25.768L73.6174 23.5524H73.6247ZM66.9633 21.3295L69.1862 23.5451L71.4018 21.3295L69.1862 19.1066L66.9633 21.3295ZM78.0632 10.2297L71.4018 16.891L73.6247 19.1066L75.8257 16.9056L75.1844 16.257L77.3999 14.0414L78.0486 14.6827L80.2861 12.4453L78.0632 10.2297ZM65.564 22.7288L66.9633 21.3295L65.564 22.7215V22.7288ZM82.7567 5.5361L80.2861 8.01407L82.5089 10.2297L84.9796 7.7517L82.7567 5.5361ZM66.9633 16.891L64.7477 14.6754L62.5322 16.891L64.7477 19.1139L66.9633 16.891ZM69.1716 10.2515L66.9779 12.4525L69.1862 14.6681L71.4018 12.4671L69.1789 10.2515H69.1716ZM63.5744 6.98644L62.5394 8.02864L64.755 10.2442L65.7972 9.20932L63.5744 6.98644Z" fill="#BBDFF0"/>
<path d="M51.4397 19.1212L49.2897 21.2712L51.5126 23.4941L53.6553 21.3441L51.4397 19.1212ZM60.3167 10.2442L58.1011 12.4671L60.3167 14.6827L62.5395 12.4671L60.3167 10.2442ZM55.8782 14.6827L53.6626 16.9056L55.8782 19.1212L58.1011 16.9056L55.8782 14.6827ZM82.4872 23.5597L80.2789 25.768L82.5017 27.9836L84.7028 25.7825L82.4872 23.5597ZM86.5467 19.5002L84.7028 21.3441L86.9256 23.5597L88.7695 21.7231L86.5467 19.5002ZM78.056 27.9908L75.8404 30.2064L78.0633 32.4293L80.2789 30.2064L78.0633 27.9908H78.056ZM73.6248 32.422L66.4533 39.5936L68.6762 41.8164L75.8404 34.6449L73.6248 32.4293V32.422ZM60.047 37.1885L56.2936 40.9419L58.5092 43.1647L62.2626 39.4114L60.047 37.1885ZM55.9146 5.8422L53.699 8.06508L55.9146 10.2807L58.1375 8.06508L55.9146 5.8422ZM51.4762 10.288L49.2606 12.5036L51.4762 14.7264L53.699 12.5036L51.4762 10.288ZM47.0377 14.7192L44.895 16.8692L47.1106 19.092L49.2606 16.942L47.0377 14.7192ZM47.6353 31.788L44.0714 35.3519L46.2943 37.5675L49.8582 34.0036L47.6353 31.788Z" fill="#BBDFF0"/>
<path d="M78.056 32.422L75.8404 34.6449L79.9946 38.7992L82.2175 36.5836L78.0633 32.4293L78.056 32.422ZM73.6248 27.9908L71.4019 30.2064L73.6248 32.4293L75.8404 30.2064L73.6175 27.9908H73.6248ZM69.179 23.5524L66.9634 25.768L69.179 27.9908L71.4019 25.768L69.179 23.5524ZM64.7406 23.5451L65.5641 22.7215L64.7406 23.5451ZM60.3167 14.6827L58.1011 16.9056L60.3094 19.1139L62.5323 16.8983L60.3167 14.6827ZM55.9146 10.2807L53.699 12.5036L55.8855 14.69L58.1011 12.4671L55.9146 10.2807ZM51.3668 5.73288L49.1512 7.95576L51.4834 10.288L53.699 8.06509L51.3668 5.73288ZM64.7551 10.2442L62.5395 12.4671L64.7479 14.6754L66.9707 12.4598L64.7551 10.2442ZM60.3604 5.8422L58.1375 8.06509L60.324 10.2515L62.5395 8.02864L60.3531 5.8422H60.3604ZM82.5018 27.9908L80.2789 30.2064L88.8497 38.77L91.0653 36.5544L82.5018 27.9908ZM78.056 23.5524L75.8404 25.768L78.0633 27.9908L80.2789 25.768L78.0633 23.5524H78.056ZM73.6248 19.1066L71.4019 21.3295L73.6248 23.5451L75.8404 21.3295L73.6175 19.1066H73.6248Z" fill="#BBDFF0"/>
<path d="M71.4019 16.891L69.1863 19.1066L71.4019 21.3295L73.6247 19.1066L71.4019 16.891ZM82.4871 19.1212L80.2642 21.3441L82.4871 23.5597L84.7027 21.3441L82.4871 19.1212ZM78.0486 14.6827L75.8257 16.9056L78.0486 19.1212L80.2642 16.9056L78.0486 14.6827ZM64.7405 27.9909L62.5249 30.2064L64.7405 32.4293L66.9634 30.2064L64.7405 27.9909Z" fill="#BBDFF0"/>
<path d="M64.7405 23.5451L62.5249 25.768L60.3021 27.9909L51.1044 37.1885L53.32 39.4114L62.5322 30.2064L64.7478 27.9909L66.9707 25.768L64.7478 23.5451H64.7405ZM64.2522 0.886271L62.0366 3.10915L65.8775 6.95729L68.1004 4.73441L64.2522 0.886271ZM82.5017 10.2297L80.2861 12.4453L86.2187 18.3778L88.4342 16.1549L82.5017 10.2297ZM43.1239 15.1054L40.9083 17.3283L42.6721 19.092L44.8949 16.8692L43.1239 15.1054ZM51.3376 23.2973L49.1221 25.5202L54.6319 31.0446L56.8475 28.829L51.3376 23.29V23.2973ZM69.2737 5.91508L67.0509 8.13068L69.1717 10.2442L71.3946 8.02864L69.2737 5.91508ZM75.9497 3.67763L73.7341 5.89322L75.8476 8.00678L78.0632 5.79119L75.9497 3.67763ZM44.2682 7.51119L42.0453 9.72678L47.0376 14.7192L49.2605 12.5036L44.2682 7.51119ZM55.8782 19.1212L53.6553 21.3441L55.8709 23.5524L58.0865 21.3368L55.8782 19.1212ZM51.4761 14.7264L49.2605 16.942L51.4397 19.1285L53.6553 16.9056L51.4761 14.7192V14.7264ZM89.8409 7.33627L86.4446 10.7253L88.6675 12.9408L92.0565 9.55186L89.8336 7.33627H89.8409Z" fill="#BBDFF0"/>
<path d="M51.3449 23.29L49.2969 21.2712L47.074 23.4868L49.122 25.5129L51.3449 23.29ZM71.4018 25.768L69.1862 27.9836L71.4018 30.2064L73.6247 27.9836L71.4018 25.768ZM69.1862 23.5451L66.9634 21.3222L65.5713 22.7215L64.7478 23.5451L66.9634 25.7607L69.1862 23.5451ZM75.8476 30.2064L73.6247 32.422L75.8476 34.6449L78.0632 32.422L75.8476 30.2064ZM62.5322 16.8983L60.3093 19.1139L62.5322 21.3295L64.755 19.1139L62.5322 16.891V16.8983ZM58.101 12.4598L55.8854 14.6827L58.101 16.8983L60.3239 14.6827L58.101 12.4598ZM53.6989 8.0578L51.4834 10.2807L53.6989 12.4963L55.9218 10.2807L53.6989 8.0578ZM66.9779 12.4525L64.755 14.6754L66.9634 16.8837L69.1862 14.6681L66.9706 12.4525H66.9779ZM62.5395 8.02136L60.3239 10.2442L62.5395 12.4598L64.7623 10.2442L62.5395 8.02136ZM58.1374 3.61932L55.9218 5.8422L58.1374 8.0578L60.3603 5.8422L58.1374 3.61932ZM75.8476 21.3222L73.6247 23.5451L75.8476 25.768L78.0632 23.5451L75.8476 21.3222ZM80.2861 25.768L78.0632 27.9836L80.2861 30.2064L82.5017 27.9836L80.2861 25.768ZM80.2715 16.8983L78.0486 19.1212L80.2715 21.3368L82.4871 19.1212L80.2715 16.8983ZM84.71 21.3441L82.4871 23.5597L84.71 25.7825L86.9256 23.5597L84.71 21.3368V21.3441ZM66.9634 30.2064L64.7478 32.422L66.9634 34.6449L69.1862 32.422L66.9634 30.2064ZM80.2861 8.00678L78.0705 10.2224L80.2861 12.4453L82.5089 10.2224L80.2861 8.00678ZM44.8949 16.8692L42.672 19.0847L44.8949 21.3076L47.1105 19.0847L44.8949 16.8692ZM71.3945 8.02864L69.1789 10.2515L71.3945 12.4671L73.6174 10.2515L71.3945 8.02864ZM58.0864 21.3295L55.8708 23.5524L58.0937 25.768L60.3093 23.5524L58.0937 21.3295H58.0864ZM53.6625 16.8983L51.4396 19.1212L53.6625 21.3368L55.8854 19.1212L53.6625 16.8983ZM49.2678 12.5036L47.0449 14.7192L49.2605 16.942L51.4834 14.7192L49.2605 12.5036H49.2678Z" fill="#86CAE1"/>
<path opacity="0.63" d="M71.4019 16.891L69.1863 19.1066L71.4019 21.3295L73.6247 19.1066L71.4019 16.891Z" fill="#A4D4EA"/>
<path d="M97.9744 25.768V28.8217H94.9207V38.1214H91.7649V28.8217H88.7039V25.768H97.9744ZM76.5983 36.5253C75.9989 37.13 75.2828 37.6066 74.4934 37.9261C73.7041 38.2456 72.8581 38.4013 72.0068 38.3837C71.1554 38.4013 70.3094 38.2456 69.5201 37.9261C68.7308 37.6066 68.0147 37.13 67.4153 36.5253C66.8042 35.9325 66.3218 35.2202 65.9983 34.4327C65.6748 33.6452 65.517 32.7995 65.5349 31.9483C65.516 31.0959 65.6733 30.2488 65.9968 29.46C66.3204 28.6712 66.8032 27.9577 67.4153 27.3641C68.0147 26.7593 68.7308 26.2827 69.5201 25.9632C70.3094 25.6437 71.1554 25.488 72.0068 25.5056C73.8215 25.5056 75.352 26.1251 76.5983 27.3641C77.2116 27.957 77.6959 28.6703 78.0207 29.4591C78.3455 30.248 78.5039 31.0954 78.4859 31.9483C78.5038 32.7995 78.3461 33.6452 78.0226 34.4327C77.6991 35.2202 77.2167 35.9325 76.6056 36.5253H76.5983ZM69.6236 34.3534C70.2576 34.9802 71.052 35.3008 72.0068 35.3008C72.4497 35.313 72.8904 35.2345 73.3018 35.0701C73.7132 34.9057 74.0867 34.659 74.3993 34.345C74.7119 34.031 74.9571 33.6565 75.1196 33.2443C75.2822 32.8322 75.3588 32.3911 75.3447 31.9483C75.3599 31.5052 75.284 31.0637 75.1218 30.6511C74.9596 30.2384 74.7145 29.8634 74.4017 29.5492C74.0889 29.2351 73.715 28.9883 73.303 28.8243C72.8911 28.6603 72.45 28.5826 72.0068 28.5958C71.5639 28.5836 71.1232 28.6621 70.7118 28.8265C70.3003 28.9909 69.9268 29.2376 69.6142 29.5516C69.3016 29.8656 69.0565 30.2401 68.8939 30.6523C68.7313 31.0644 68.6547 31.5055 68.6688 31.9483C68.6688 32.9249 68.9895 33.7266 69.6236 34.3534ZM83.6897 38.3837C82.3778 38.3837 81.2992 38.1068 80.4392 37.5602C79.6031 37.0364 78.9686 36.2453 78.639 35.3154L81.3429 33.7485C81.518 34.2474 81.8495 34.6765 82.2881 34.972C82.7267 35.2674 83.2489 35.4134 83.7771 35.3883C84.7464 35.3883 85.2275 35.1114 85.2275 34.5647C85.2275 34.2003 84.9505 33.9088 84.3893 33.6902C84.1561 33.5954 83.6386 33.4278 82.8442 33.2019C81.8575 32.9477 80.9408 32.4744 80.1622 31.8171C79.8268 31.501 79.5643 31.1155 79.3932 30.6875C79.222 30.2596 79.1462 29.7994 79.171 29.3392C79.171 28.1949 79.5792 27.2693 80.4027 26.5697C81.2564 25.8487 82.3469 25.4696 83.4637 25.5056C84.4986 25.5056 85.4097 25.7461 86.2114 26.2344C87.0242 26.7293 87.6654 27.462 88.048 28.3334L85.4024 29.8858C85.0161 28.9675 84.3747 28.501 83.4783 28.501C83.0993 28.501 82.8224 28.5812 82.6256 28.7342C82.5347 28.8017 82.4609 28.8897 82.4102 28.991C82.3596 29.0923 82.3335 29.204 82.3341 29.3173C82.3341 29.5942 82.4798 29.8275 82.7641 30.0169C83.0556 30.2064 83.6095 30.4251 84.4403 30.6729L85.8834 31.183C86.2551 31.3288 86.6632 31.5329 87.0932 31.8244C87.5305 32.1159 87.8585 32.4803 88.0698 32.9322C88.2812 33.3841 88.3832 33.9161 88.3832 34.521C88.4087 35.0631 88.3051 35.6035 88.0808 36.0977C87.8565 36.5919 87.518 37.0257 87.0932 37.3634C86.1084 38.0819 84.9074 38.4419 83.6897 38.3837ZM54.2966 12.438H57.4597V24.7914H54.2966V12.438ZM19.5686 24.7914L18.971 23.0058H14.7731L14.241 24.7914H10.8156L14.7512 12.438H18.7305L22.8119 24.7914H19.5686ZM15.582 20.2946H18.0673L16.821 16.0893L15.582 20.2946ZM35.362 17.7146V18.9681C35.362 20.7756 34.7936 22.2478 33.6639 23.3702C33.0788 23.9355 32.385 24.3762 31.6246 24.6656C30.8642 24.955 30.0529 25.087 29.24 25.0537C28.3638 25.0839 27.4905 24.9354 26.6736 24.6171C25.8566 24.2988 25.113 23.8175 24.4881 23.2025C23.8806 22.6094 23.4014 21.8977 23.0805 21.1116C22.7595 20.3255 22.6036 19.4818 22.6224 18.6329C22.603 17.782 22.7572 16.936 23.0754 16.1466C23.3937 15.3572 23.8694 14.6409 24.4736 14.0414C25.0693 13.4311 25.7845 12.9503 26.5746 12.6293C27.3647 12.3083 28.2125 12.1538 29.0651 12.1756C30.1676 12.1632 31.2555 12.4289 32.2281 12.9481C33.1486 13.4263 33.9276 14.1375 34.4875 15.0107L31.7981 16.5412C31.528 16.1388 31.1523 15.8185 30.7122 15.6156C30.2103 15.3732 29.6589 15.251 29.1015 15.2585C28.654 15.2405 28.2077 15.3163 27.7912 15.481C27.3747 15.6456 26.9971 15.8955 26.6829 16.2146C26.3686 16.5337 26.1245 16.9149 25.9661 17.3339C25.8078 17.7528 25.7388 18.2003 25.7636 18.6475C25.7636 19.5949 26.0697 20.4039 26.6892 21.0671C27.3086 21.7231 28.1759 22.051 29.291 22.051C30.7268 22.051 31.6742 21.5117 32.1334 20.4331H29.138V17.7146H35.362ZM5.02881 12.438C6.73424 12.438 8.16271 13.0283 9.30695 14.209C9.87305 14.7907 10.3169 15.4799 10.6123 16.236C10.9077 16.992 11.0487 17.7996 11.0269 18.611C11.0269 20.3602 10.4585 21.8324 9.30695 23.0203C8.75664 23.5974 8.09179 24.053 7.35505 24.358C6.61831 24.663 5.82595 24.8106 5.02881 24.7914H0V12.438H5.02881ZM5.02881 21.7376C5.41902 21.7515 5.80775 21.6827 6.16949 21.5357C6.53123 21.3888 6.85781 21.167 7.1278 20.8849C7.69004 20.2648 7.98357 19.4471 7.94407 18.611C7.94407 17.6708 7.67441 16.9202 7.1278 16.3517C6.85845 16.0683 6.53216 15.8452 6.17039 15.6969C5.80862 15.5487 5.41956 15.4788 5.02881 15.4917H3.25051V21.7376H5.02881ZM84.3675 25.061C83.0556 25.061 81.977 24.7768 81.1242 24.2229C80.2894 23.701 79.6551 22.9126 79.3241 21.9854L82.0207 20.4185C82.1958 20.9174 82.5273 21.3465 82.9659 21.642C83.4045 21.9374 83.9267 22.0834 84.4549 22.0583C85.4242 22.0583 85.9053 21.7814 85.9053 21.2347C85.9053 20.8703 85.6283 20.5788 85.0671 20.3602C84.8339 20.2654 84.3164 20.0978 83.522 19.8719C82.5353 19.6177 81.6186 19.1444 80.84 18.4871C80.5042 18.1713 80.2415 17.7858 80.0703 17.3578C79.899 16.9298 79.8235 16.4695 79.8488 16.0092C79.8488 14.8649 80.257 13.9393 81.0805 13.2397C81.9342 12.5187 83.0247 12.1396 84.1415 12.1756C85.1764 12.1756 86.0947 12.4161 86.8892 12.9044C87.7006 13.3977 88.3415 14.1277 88.7258 14.9961L86.0802 16.5485C85.6939 15.6375 85.0525 15.1783 84.1561 15.1783C83.7771 15.1783 83.5002 15.2512 83.3034 15.4042C83.2125 15.4717 83.1387 15.5597 83.088 15.661C83.0374 15.7623 83.0113 15.874 83.0119 15.9873C83.0119 16.2642 83.1576 16.4975 83.4492 16.6869C83.7334 16.8764 84.2946 17.0951 85.1254 17.3429L86.5612 17.8531C86.9329 17.9988 87.341 18.2029 87.771 18.4944C88.2083 18.7859 88.5363 19.1503 88.7476 19.6022C88.959 20.0541 89.0683 20.5861 89.0683 21.191C89.0938 21.7331 88.9902 22.2735 88.7659 22.7677C88.5416 23.2619 88.2031 23.6957 87.7783 24.0334C86.7917 24.754 85.5877 25.1142 84.3675 25.0537V25.061ZM93.1934 21.8251H97.9744V24.7914H90.0303V12.438H97.8869V15.3824H93.1934V17.0951H97.4424V20.0103H93.1934V21.8324V21.8251ZM62.627 25.061C60.6008 25.061 59.1797 24.2302 58.3561 22.583L61.0527 21.0161C61.2349 21.3586 61.439 21.5992 61.6722 21.7595C61.9054 21.9053 62.2261 21.9854 62.627 21.9854C63.5307 21.9854 63.9825 21.57 63.9825 20.7319V12.438H67.1456V20.7829C67.1456 22.1166 66.7375 23.1588 65.9212 23.9168C65.0116 24.7078 63.8308 25.1154 62.627 25.0537V25.061Z" fill="#1F272A"/>
<path d="M80.3444 24.7768L74.1495 18.5819L80.308 12.4307H75.8622L68.7855 19.5002V24.7841H71.9412V20.8193L75.906 24.7768H80.3444ZM39.8078 21.8251H44.5888V24.7914H36.6448V12.438H44.5014V15.3824H39.8078V17.0951H44.0641V20.0103H39.8078V21.8324V21.8251ZM49.071 21.7376H53.3273V24.7914H45.9153V12.438H49.0783V21.7376H49.071ZM66.9999 38.1141L60.8049 31.9192L66.9634 25.768H62.5177L55.4409 32.8447V38.1214H58.5966V34.1566L62.5614 38.1141H66.9999Z" fill="#1F272A"/>
</g>
<defs>
<clipPath id="clip0_679_14235">
<rect width="98.3898" height="43" fill="white" transform="translate(0 0.5)"/>
</clipPath>
</defs>
</svg>
